<svg width="20" height="20" viewBox="0 0 20 20" fill="none" xmlns="http://www.w3.org/2000/svg">
<path fill-rule="evenodd" clip-rule="evenodd" d="M10 17C13.866 17 17 13.866 17 10C17 6.13401 13.866 3 10 3C6.13401 3 3 6.13401 3 10C3 13.866 6.13401 17 10 17ZM13.8182 9.15156C14.2088 8.76103 14.2088 8.12787 13.8182 7.73734C13.4277 7.34682 12.7945 7.34682 12.404 7.73734L9.22223 10.9191L7.59601 9.2929C7.20548 8.90237 6.57232 8.90237 6.18179 9.2929C5.79127 9.68342 5.79127 10.3166 6.18179 10.7071L8.51513 13.0404C8.90565 13.431 9.53882 13.431 9.92934 13.0404L13.8182 9.15156Z" fill="#08C379"/>
</svg>
