<svg width="24" height="24" viewBox="0 0 24 24" fill="none" xmlns="http://www.w3.org/2000/svg">
<path d="M5.66399 5.66351C5.31252 6.01498 5.31252 6.58483 5.66399 6.9363L10.7552 12.0275L5.66399 17.1186C5.31252 17.4701 5.31252 18.04 5.66399 18.3914C6.01547 18.7429 6.58532 18.7429 6.93679 18.3914L12.028 13.3003L17.1191 18.3914C17.4706 18.7429 18.0404 18.7429 18.3919 18.3914C18.7434 18.04 18.7434 17.4701 18.3919 17.1186L13.3007 12.0275L18.3919 6.9363C18.7434 6.58483 18.7434 6.01498 18.3919 5.66351C18.0404 5.31203 17.4706 5.31203 17.1191 5.66351L12.028 10.7547L6.93679 5.66351C6.58531 5.31203 6.01547 5.31203 5.66399 5.66351Z" fill="white"/>
</svg>
