<svg width="20" height="20" viewBox="0 0 20 20" fill="none" xmlns="http://www.w3.org/2000/svg">
<path fill-rule="evenodd" clip-rule="evenodd" d="M2.13569 2.13642C2.42858 1.84352 2.90345 1.84352 3.19635 2.13642L6.56938 5.50945C6.56948 5.50955 6.56958 5.50965 6.56968 5.50975L9.11339 8.05346C9.11339 8.05347 9.1134 8.05347 9.11341 8.05348C9.11515 8.05521 9.11688 8.05694 9.11861 8.05868C9.11861 8.05869 9.11862 8.0587 9.11863 8.0587L11.9408 10.8808C11.9408 10.8809 11.9408 10.8809 11.9408 10.8809C11.9425 10.8826 11.9442 10.8843 11.9459 10.8859C11.9459 10.886 11.9459 10.886 11.9459 10.886L14.4897 13.4298L17.863 16.8031C18.1559 17.096 18.1559 17.5709 17.863 17.8637C17.5701 18.1566 17.0952 18.1566 16.8024 17.8637L13.8718 14.9332C12.7184 15.6608 11.3836 16.0609 10.0116 16.0833L9.99935 16.0835V16.0834C7.36638 16.0834 5.34854 14.5803 4.03553 13.1797C3.37218 12.4721 2.866 11.7674 2.52557 11.2403C2.35489 10.976 2.22464 10.7545 2.13603 10.5969C2.0917 10.5181 2.0577 10.4552 2.03419 10.4108C2.02244 10.3886 2.0133 10.371 2.0068 10.3583L1.99901 10.3431L1.99661 10.3383L1.99578 10.3367L1.99546 10.336C1.99532 10.3357 1.9952 10.3355 2.66602 10.0001L1.9952 10.3355C1.88621 10.1175 1.88992 9.86019 2.00515 9.64546C2.75015 8.25709 3.73926 7.01722 4.92279 5.98419L2.13569 3.19708C1.84279 2.90418 1.84279 2.42931 2.13569 2.13642ZM5.98622 7.04761C5.00662 7.88752 4.17421 8.8861 3.52411 10.0021C3.59291 10.1196 3.68024 10.2633 3.78563 10.4265C4.09103 10.8994 4.54318 11.528 5.12984 12.1538C6.31563 13.4186 7.96234 14.5811 9.99323 14.5834C10.9725 14.5664 11.9279 14.3086 12.7772 13.8386L11.3533 12.4147C11.2615 12.4691 11.1665 12.5183 11.0687 12.5619C10.7314 12.7122 10.3672 12.793 9.99797 12.7995C9.62873 12.8061 9.26196 12.7381 8.91953 12.5998C8.57711 12.4615 8.26605 12.2556 8.00492 11.9945C7.74378 11.7334 7.53792 11.4223 7.39961 11.0799C7.2613 10.7375 7.19337 10.3707 7.19989 10.0015C7.2064 9.63221 7.28722 9.26806 7.43753 8.93073C7.48112 8.83289 7.53031 8.73788 7.58476 8.64615L5.98622 7.04761ZM8.72711 9.7885C8.71031 9.86704 8.70108 9.94721 8.69965 10.0279C8.69669 10.1958 8.72757 10.3625 8.79044 10.5181C8.8533 10.6738 8.94688 10.8152 9.06558 10.9339C9.18427 11.0526 9.32566 11.1461 9.48131 11.209C9.63696 11.2719 9.80367 11.3027 9.97151 11.2998C10.0522 11.2984 10.1324 11.2891 10.2109 11.2723L8.72711 9.7885ZM10.2551 5.4229L15.8247 10.9975C16.0584 10.6761 16.2755 10.3427 16.475 9.99876C16.4061 9.88113 16.3187 9.73715 16.2131 9.57364C15.9077 9.10076 15.4555 8.47213 14.8689 7.84637C13.732 6.63376 12.1716 5.51528 10.2551 5.4229ZM17.3327 10.0001L18.0035 9.66467C18.1123 9.88226 18.1088 10.1391 17.9941 10.3536C17.5648 11.1567 17.0529 11.9128 16.4665 12.6096C16.3312 12.7704 16.1347 12.8671 15.9247 12.8761C15.7147 12.885 15.5106 12.8055 15.3621 12.6568L8.06878 5.35684C7.87642 5.1643 7.80346 4.88267 7.87814 4.62095C7.95282 4.35924 8.16342 4.15852 8.42841 4.09649C8.94362 3.97589 9.4711 3.91557 10.0002 3.91675C10.0005 3.91675 10.0008 3.91675 10.0011 3.91675L9.99935 4.66675V3.91675C9.99964 3.91675 9.99994 3.91675 10.0002 3.91675C12.6328 3.91708 14.6503 5.42007 15.9632 6.82046C16.6265 7.52803 17.1327 8.23273 17.4731 8.75985C17.6438 9.02414 17.7741 9.24569 17.8627 9.40322C17.907 9.48203 17.941 9.54498 17.9645 9.5894C17.9763 9.61161 17.9854 9.62921 17.9919 9.64186L17.9997 9.65709L18.0021 9.66185L18.0029 9.66351L18.0032 9.66415C18.0034 9.66442 18.0035 9.66467 17.3327 10.0001Z" fill="#333333"/>
</svg>
