<svg width="20" height="20" viewBox="0 0 20 20" fill="none" xmlns="http://www.w3.org/2000/svg">
<path fill-rule="evenodd" clip-rule="evenodd" d="M2.84938 10C2.92945 10.143 3.03649 10.3267 3.16973 10.5394C3.50514 11.075 4.0016 11.7868 4.64586 12.4955C5.94981 13.9298 7.76334 15.25 10 15.25C12.2367 15.25 14.0502 13.9298 15.3541 12.4955C15.9984 11.7868 16.4949 11.075 16.8303 10.5394C16.9635 10.3267 17.0705 10.143 17.1506 10C17.0705 9.857 16.9635 9.67332 16.8303 9.46058C16.4949 8.925 15.9984 8.21319 15.3541 7.5045C14.0502 6.07016 12.2367 4.75 10 4.75C7.76334 4.75 5.94981 6.07016 4.64586 7.5045C4.0016 8.21319 3.50514 8.925 3.16973 9.46058C3.03649 9.67332 2.92945 9.857 2.84938 10ZM18 10C18.6749 9.67279 18.6747 9.67255 18.6746 9.67227L18.6743 9.67161L18.6734 9.66988L18.6709 9.66478L18.6627 9.64817C18.6558 9.63428 18.646 9.61484 18.6334 9.59022C18.6081 9.54097 18.5714 9.47093 18.5235 9.38305C18.4277 9.2074 18.2866 8.95989 18.1015 8.66442C17.7324 8.075 17.1834 7.28681 16.464 6.4955C15.0407 4.92984 12.8542 3.25 10 3.25C7.14575 3.25 4.95928 4.92984 3.53595 6.4955C2.81658 7.28681 2.26759 8.075 1.89845 8.66442C1.71341 8.95989 1.57233 9.2074 1.47652 9.38305C1.42859 9.47093 1.3919 9.54097 1.36663 9.59022C1.354 9.61484 1.34421 9.63428 1.33729 9.64817L1.32906 9.66478L1.32656 9.66988L1.32571 9.67161L1.32539 9.67227C1.32526 9.67255 1.32514 9.67279 2 10L1.32514 9.67279C1.22495 9.87943 1.22495 10.1206 1.32514 10.3272L2 10C1.32514 10.3272 1.32526 10.3275 1.32539 10.3277L1.32571 10.3284L1.32656 10.3301L1.32906 10.3352L1.33729 10.3518C1.34421 10.3657 1.354 10.3852 1.36663 10.4098C1.3919 10.459 1.42859 10.5291 1.47652 10.617C1.57233 10.7926 1.71341 11.0401 1.89845 11.3356C2.26759 11.925 2.81658 12.7132 3.53595 13.5045C4.95928 15.0702 7.14575 16.75 10 16.75C12.8542 16.75 15.0407 15.0702 16.464 13.5045C17.1834 12.7132 17.7324 11.925 18.1015 11.3356C18.2866 11.0401 18.4277 10.7926 18.5235 10.617C18.5714 10.5291 18.6081 10.459 18.6334 10.4098C18.646 10.3852 18.6558 10.3657 18.6627 10.3518L18.6709 10.3352L18.6734 10.3301L18.6743 10.3284L18.6746 10.3277C18.6747 10.3275 18.6749 10.3272 18 10ZM18 10L18.6749 10.3272C18.775 10.1206 18.775 9.87943 18.6749 9.67279L18 10ZM10 7.75C8.75736 7.75 7.75 8.75736 7.75 10C7.75 11.2426 8.75736 12.25 10 12.25C11.2426 12.25 12.25 11.2426 12.25 10C12.25 8.75736 11.2426 7.75 10 7.75ZM6.25 10C6.25 7.92893 7.92893 6.25 10 6.25C12.0711 6.25 13.75 7.92893 13.75 10C13.75 12.0711 12.0711 13.75 10 13.75C7.92893 13.75 6.25 12.0711 6.25 10Z" fill="#333333"/>
</svg>
