<svg width="64" height="64" viewBox="0 0 64 64" fill="none" xmlns="http://www.w3.org/2000/svg">
<rect x="0.5" y="0.5" width="63" height="63" rx="31.5" fill="white" stroke="#C6D6FF"/>
<path d="M28.7463 23.9457H21.9223L27.7999 17.9688C28.0734 17.695 28.394 17.4728 28.7461 17.3125L28.7463 23.9457ZM44.0026 19.216V44.7839C44.0041 45.369 43.7737 45.9309 43.3617 46.3463C42.9495 46.7616 42.3895 46.9967 41.8044 47H22.9487C22.3636 46.9969 21.8034 46.7619 21.3911 46.3466C20.9791 45.931 20.7485 45.3693 20.75 44.7838V26.491C20.75 26.4081 20.7675 26.329 20.7736 26.2473H29.897V26.247C30.2022 26.2473 30.4947 26.126 30.7108 25.91C30.9265 25.6943 31.0477 25.4015 31.0477 25.0963V17H41.8045H41.8042C42.3893 17.0033 42.9493 17.2384 43.3615 17.6537C43.7735 18.069 44.0039 18.631 44.0024 19.2161L44.0026 19.216ZM33.3491 25.0964C33.3488 25.4015 33.47 25.6943 33.6858 25.9101C33.9018 26.1261 34.1944 26.2473 34.4998 26.2471H37.9519C38.3628 26.2471 38.7427 26.0277 38.9482 25.6717C39.1539 25.3157 39.1539 24.877 38.9482 24.521C38.7427 24.165 38.3628 23.9457 37.9519 23.9457H34.4998C34.1944 23.9457 33.9018 24.0669 33.6858 24.2827C33.47 24.4984 33.3488 24.7912 33.3491 25.0964ZM39.1272 38.9679C39.129 38.6628 39.0096 38.3692 38.7951 38.1521C38.5804 37.9351 38.2883 37.8123 37.9832 37.8105L26.4512 37.7453C26.1435 37.7353 25.8453 37.8521 25.6264 38.0684C25.4076 38.2847 25.2871 38.5816 25.2938 38.8893C25.2917 39.1944 25.4114 39.488 25.6259 39.705C25.8404 39.9221 26.1324 40.0451 26.4376 40.0467L37.9696 40.1119H37.9765C38.2804 40.1119 38.5721 39.9914 38.7876 39.7772C39.0034 39.563 39.1254 39.272 39.1272 38.9678L39.1272 38.9679ZM39.1272 32.0637C39.129 31.7586 39.0096 31.465 38.7951 31.248C38.5804 31.0309 38.2883 30.9081 37.9832 30.9063L26.4512 30.8411H26.4445C26.0333 30.8401 25.6529 31.0581 25.4461 31.4136C25.2396 31.7691 25.2383 32.2075 25.4428 32.5643C25.6472 32.9208 26.0266 33.1415 26.4376 33.1425L37.9695 33.2077H37.9765C38.2803 33.2077 38.5721 33.0873 38.7876 32.8731C39.0034 32.6588 39.1254 32.3678 39.1272 32.0637L39.1272 32.0637Z" fill="#094DF1"/>
</svg>
