<svg width="64" height="64" viewBox="0 0 64 64" fill="none" xmlns="http://www.w3.org/2000/svg">
<rect x="0.5" y="0.5" width="63" height="63" rx="31.5" fill="white"/>
<path d="M39.7335 33.6H31.7335V41.6H39.7335V33.6ZM38.1335 16V19.2H25.3335V16H22.1335V19.2H20.5335C18.7575 19.2 17.3495 20.64 17.3495 22.4L17.3335 44.8C17.3335 46.56 18.7575 48 20.5335 48H42.9335C44.6935 48 46.1335 46.56 46.1335 44.8V22.4C46.1335 20.64 44.6935 19.2 42.9335 19.2H41.3335V16H38.1335ZM42.9335 44.8H20.5335V27.2H42.9335V44.8Z" fill="#094DF1"/>
<rect x="0.5" y="0.5" width="63" height="63" rx="31.5" stroke="#C6D6FF" stroke-dasharray="4 4"/>
</svg>
