<svg width="64" height="64" viewBox="0 0 64 64" fill="none" xmlns="http://www.w3.org/2000/svg">
<rect x="0.5" y="0.5" width="63" height="63" rx="31.5" fill="white" stroke="#C6D6FF"/>
<path d="M44.0002 28H35.5868L36.8535 21.9067L36.8935 21.48C36.8935 20.9334 36.6668 20.4267 36.3068 20.0667L34.8935 18.6667L26.1202 27.4534C25.6268 27.9334 25.3335 28.6 25.3335 29.3334V42.6667C25.3335 44.1334 26.5335 45.3334 28.0002 45.3334H40.0002C41.1068 45.3334 42.0535 44.6667 42.4535 43.7067L46.4802 34.3067C46.6002 34 46.6668 33.68 46.6668 33.3334V30.6667C46.6668 29.2 45.4668 28 44.0002 28ZM44.0002 33.3334L40.0002 42.6667H28.0002V29.3334L33.7868 23.5467L32.3068 30.6667H44.0002V33.3334ZM17.3335 29.3334H22.6668V45.3334H17.3335V29.3334Z" fill="#094DF1"/>
</svg>
