<svg width="72" height="72" viewBox="0 0 72 72" fill="none" xmlns="http://www.w3.org/2000/svg">
<rect x="0.9" y="0.9" width="70.2" height="70.2" rx="20.7" fill="white" stroke="#4F4F4F" stroke-width="1.8"/>
<path d="M35.9977 24.3C37.9777 24.3 39.5977 25.92 39.5977 27.9C39.5977 29.88 37.9777 31.5 35.9977 31.5C34.0177 31.5 32.3977 29.88 32.3977 27.9C32.3977 25.92 34.0177 24.3 35.9977 24.3ZM35.9977 40.5C40.8577 40.5 46.4377 42.822 46.7977 44.1V45.9H25.1977V44.118C25.5577 42.822 31.1377 40.5 35.9977 40.5ZM35.9977 20.7C32.0197 20.7 28.7977 23.922 28.7977 27.9C28.7977 31.878 32.0197 35.1 35.9977 35.1C39.9757 35.1 43.1977 31.878 43.1977 27.9C43.1977 23.922 39.9757 20.7 35.9977 20.7ZM35.9977 36.9C31.1917 36.9 21.5977 39.312 21.5977 44.1V49.5H50.3977V44.1C50.3977 39.312 40.8037 36.9 35.9977 36.9Z" fill="black"/>
</svg>
