<svg width="120" height="120" viewBox="0 0 120 120" fill="none" xmlns="http://www.w3.org/2000/svg">
<mask id="path-1-inside-1_361_12555" fill="white">
<path d="M106.667 0H13.3333C6 0 0.0666666 6 0.0666666 13.3333L0 106.667C0 114 6 120 13.3333 120H106.667C114 120 120 114 120 106.667V13.3333C120 6 114 0 106.667 0ZM106.667 106.667H13.3333V13.3333H106.667V106.667ZM50 93.3333H70V70H93.3333V50H70V26.6667H50V50H26.6667V70H50V93.3333Z"/>
</mask>
<path d="M0.0666666 13.3333L20.6578 13.348L20.6578 13.3407V13.3333H0.0666666ZM0 106.667L-20.5911 106.652L-20.5911 106.659V106.667H0ZM106.667 106.667V127.258H127.258V106.667H106.667ZM13.3333 106.667H-7.2578V127.258H13.3333V106.667ZM13.3333 13.3333V-7.2578H-7.2578V13.3333H13.3333ZM106.667 13.3333H127.258V-7.2578H106.667V13.3333ZM50 93.3333H29.4089V113.924H50V93.3333ZM70 93.3333V113.924H90.5911V93.3333H70ZM70 70V49.4089H49.4089V70H70ZM93.3333 70V90.5911H113.924V70H93.3333ZM93.3333 50H113.924V29.4089H93.3333V50ZM70 50H49.4089V70.5911H70V50ZM70 26.6667H90.5911V6.07553H70V26.6667ZM50 26.6667V6.07553H29.4089V26.6667H50ZM50 50V70.5911H70.5911V50H50ZM26.6667 50V29.4089H6.07553V50H26.6667ZM26.6667 70H6.07553V90.5911H26.6667V70ZM50 70H70.5911V49.4089H50V70ZM106.667 -20.5911H13.3333V20.5911H106.667V-20.5911ZM13.3333 -20.5911C-5.50629 -20.5911 -20.5245 -5.23759 -20.5245 13.3333H20.6578C20.6578 17.2376 17.5063 20.5911 13.3333 20.5911V-20.5911ZM-20.5245 13.3186L-20.5911 106.652L20.5911 106.681L20.6578 13.348L-20.5245 13.3186ZM-20.5911 106.667C-20.5911 125.372 -5.37217 140.591 13.3333 140.591V99.4089C17.3722 99.4089 20.5911 102.628 20.5911 106.667H-20.5911ZM13.3333 140.591H106.667V99.4089H13.3333V140.591ZM106.667 140.591C125.372 140.591 140.591 125.372 140.591 106.667H99.4089C99.4089 102.628 102.628 99.4089 106.667 99.4089V140.591ZM140.591 106.667V13.3333H99.4089V106.667H140.591ZM140.591 13.3333C140.591 -5.37217 125.372 -20.5911 106.667 -20.5911V20.5911C102.628 20.5911 99.4089 17.3722 99.4089 13.3333H140.591ZM106.667 86.0755H13.3333V127.258H106.667V86.0755ZM33.9245 106.667V13.3333H-7.2578V106.667H33.9245ZM13.3333 33.9245H106.667V-7.2578H13.3333V33.9245ZM86.0755 13.3333V106.667H127.258V13.3333H86.0755ZM50 113.924H70V72.7422H50V113.924ZM90.5911 93.3333V70H49.4089V93.3333H90.5911ZM70 90.5911H93.3333V49.4089H70V90.5911ZM113.924 70V50H72.7422V70H113.924ZM93.3333 29.4089H70V70.5911H93.3333V29.4089ZM90.5911 50V26.6667H49.4089V50H90.5911ZM70 6.07553H50V47.2578H70V6.07553ZM29.4089 26.6667V50H70.5911V26.6667H29.4089ZM50 29.4089H26.6667V70.5911H50V29.4089ZM6.07553 50V70H47.2578V50H6.07553ZM26.6667 90.5911H50V49.4089H26.6667V90.5911ZM29.4089 70V93.3333H70.5911V70H29.4089Z" fill="url(#paint0_angular_361_12555)" mask="url(#path-1-inside-1_361_12555)"/>
<defs>
<radialGradient id="paint0_angular_361_12555" cx="0" cy="0" r="1" gradientUnits="userSpaceOnUse" gradientTransform="translate(60 60) rotate(-42.6368) scale(111.464)">
<stop stop-color="#4B80FF"/>
<stop offset="1" stop-color="white"/>
</radialGradient>
</defs>
</svg>
